<?xml version="1.0" encoding="utf-8"?>
<!-- Generator: Adobe Illustrator 16.0.0, SVG Export Plug-In . SVG Version: 6.00 Build 0)  -->
<!DOCTYPE svg PUBLIC "-//W3C//DTD SVG 1.1 Tiny//EN" "http://www.w3.org/Graphics/SVG/1.1/DTD/svg11-tiny.dtd">
<svg version="1.1" baseProfile="tiny" id="Layer_1" xmlns="http://www.w3.org/2000/svg" xmlns:xlink="http://www.w3.org/1999/xlink"
	 x="0px" y="0px" width="600px" height="600px" viewBox="0 0 600 600" xml:space="preserve">
<g>
	<g>
		<path fill="#454D5D" d="M552.596,232.083c-6.264,0-11.341,5.077-11.341,11.341l0,0v270.638c0,15.09-12.233,27.321-27.322,27.321
			H84.906c-15.088,0-27.321-12.231-27.321-27.321V85.552c0-15.09,12.233-27.321,27.321-27.321l0,0h270.639
			c6.299,0,11.406-5.106,11.406-11.406c0-6.299-5.107-11.405-11.406-11.405l0,0H84.906c-27.687,0-50.132,22.445-50.132,50.133l0,0
			v428.897c0,27.687,22.445,50.132,50.132,50.132h428.896c27.688,0,50.134-22.445,50.134-50.132V243.811
			c0.214-6.26-4.688-11.508-10.947-11.721C552.857,232.085,552.727,232.083,552.596,232.083z"/>
		<path fill="#454D5D" d="M546.666,59.647c-8.688-10.632-21.258-17.357-34.925-18.687c-13.385,1.422-25.642,8.152-34.022,18.687
			L294.586,242.779l-0.644,0.773c-9.924,11.856-36.729,78.615-44.72,98.848c-2.4,5.784,0.345,12.421,6.13,14.821
			c2.782,1.152,5.909,1.152,8.689,0c20.234-7.991,86.863-34.797,98.848-44.72l0.773-0.646l183.002-183.261
			c9.565-7.863,16.12-18.79,18.56-30.93C564.916,82.884,558.13,68.984,546.666,59.647z M530.558,112.486L347.812,295.231
			c-21.839,11.604-44.396,21.804-67.531,30.544c8.823-23.143,19.11-45.697,30.801-67.53L493.958,75.757
			c8.504-8.506,13.659-11.985,17.912-11.985c4.254,0,10.954,3.995,18.944,11.985c7.991,7.99,12.889,15.078,11.987,19.718
			C540.4,102.184,536.158,108.08,530.558,112.486z"/>
	</g>
</g>
</svg>
