<?xml version="1.0" encoding="utf-8"?>
<!-- Generator: Adobe Illustrator 16.0.0, SVG Export Plug-In . SVG Version: 6.00 Build 0)  -->
<!DOCTYPE svg PUBLIC "-//W3C//DTD SVG 1.1//EN" "http://www.w3.org/Graphics/SVG/1.1/DTD/svg11.dtd">
<svg version="1.1" id="Layer_1" xmlns="http://www.w3.org/2000/svg" xmlns:xlink="http://www.w3.org/1999/xlink" x="0px" y="0px"
	 width="500px" height="500px" viewBox="0 0 500 500" enable-background="new 0 0 500 500" xml:space="preserve">
<g>
	<path fill="#E27B7D" d="M216.733,142.437c0,18.361,14.936,33.297,33.305,33.297c18.355,0,33.29-14.936,33.29-33.297
		s-14.935-33.297-33.29-33.297C231.669,109.139,216.733,124.075,216.733,142.437z M272.946,142.437
		c0,12.637-10.277,22.915-22.908,22.915c-12.638,0-22.923-10.277-22.923-22.915c0-12.638,10.277-22.916,22.923-22.916
		C262.669,119.521,272.946,129.798,272.946,142.437z"/>
	<path fill="#E27B7D" d="M250.031,223.689c-12.022,0-21.802,9.779-21.802,21.801s9.779,21.802,21.802,21.802
		c12.015,0,21.794-9.779,21.794-21.802C271.832,233.468,262.053,223.689,250.031,223.689z M250.031,256.91
		c-6.299,0-11.42-5.122-11.42-11.42c0-6.299,5.121-11.42,11.42-11.42c6.291,0,11.412,5.121,11.412,11.42
		C261.45,251.788,256.329,256.91,250.031,256.91z"/>
	<path fill="#E27B7D" d="M255.223,466.318V410.75c0-2.866-2.326-5.189-5.191-5.189c-2.866,0-5.191,2.323-5.191,5.189v55.568
		c0,2.866,2.325,5.191,5.191,5.191C252.896,471.51,255.223,469.185,255.223,466.318z"/>
	<path fill="#6B36E7" d="M471.482,433.59V66.284c0-2.865-2.325-5.19-5.189-5.19H280.165c-7.925-10.936-16.722-21.345-26.46-31.083
		c-2.026-2.028-5.314-2.028-7.343,0c-9.73,9.724-18.438,20.167-26.334,31.083h-186.3c-2.858,0-5.212,2.346-5.212,5.211
		c0,0.235,0.021,6.623,0.021,367.417c0,5.162,6.09,6.623,9.024,3.501l27.082-27.089l27.227,27.228
		c1.018,1.017,2.34,1.522,3.668,1.522c1.329,0,2.658-0.506,3.669-1.522l27.233-27.228l27.229,27.228
		c1.011,1.017,2.339,1.522,3.667,1.522c1.329,0,2.658-0.506,3.669-1.522l27.233-27.228l27.229,27.228
		c2.124,2.125,5.882,2.235,7.917-0.873v7.504c0,2.864,2.325,5.19,5.19,5.19c2.866,0,5.191-2.326,5.191-5.19v-43.977
		c0-2.865-2.325-5.191-5.191-5.191c-2.865,0-5.19,2.326-5.19,5.191v30.882c-0.194-0.291-0.325-0.615-0.582-0.872l-30.895-30.896
		c-0.976-0.975-2.291-1.522-3.669-1.522c-1.377,0-2.698,0.548-3.667,1.522l-27.229,27.228l-27.227-27.228
		c-0.976-0.975-2.291-1.522-3.668-1.522s-2.699,0.548-3.669,1.522l-27.233,27.228l-27.228-27.228c-1.944-1.944-5.392-1.944-7.336,0
		l-22.058,22.058V119.942h149.376c-19.323,51.008-22.119,107.733-6.146,162.063l-25.269,18.755
		c-1.315,0.976-2.098,2.526-2.098,4.168v58.973c0,3.398,3.219,5.85,6.424,5.047l56.032-13.664
		c7.675,11.018,14.472,20.321,27.594,22.267v15.273c0,2.866,2.325,5.191,5.191,5.191c2.865,0,5.191-2.325,5.191-5.191v-15.295
		c13.695-2.035,20.513-12.028,27.601-22.245l56.032,13.664c3.232,0.794,6.423-1.655,6.423-5.047v-58.973
		c0-1.642-0.775-3.185-2.098-4.168l-25.248-18.755c15.553-52.731,13.649-109.927-6.056-162.063h149.224v301.204l-22.022-22.018
		c-1.945-1.944-5.391-1.944-7.336,0l-27.228,27.228l-27.227-27.228c-1.945-1.944-5.392-1.944-7.344,0l-27.228,27.228l-27.227-27.228
		c-1.944-1.944-5.393-1.944-7.343,0l-30.896,30.896c-0.256,0.257-0.388,0.581-0.58,0.872v-30.882c0-2.865-2.327-5.191-5.191-5.191
		c-2.866,0-5.19,2.326-5.19,5.191v43.977c0,2.864,2.324,5.19,5.19,5.19c2.864,0,5.191-2.326,5.191-5.19v-7.504
		c2.033,3.108,5.798,2.998,7.923,0.873l27.228-27.228l27.234,27.228c1.018,1.017,2.34,1.522,3.669,1.522s2.657-0.506,3.668-1.522
		l27.227-27.228l27.234,27.228c1.011,1.017,2.34,1.522,3.668,1.522c1.329,0,2.659-0.506,3.669-1.522l27.227-27.228l26.937,26.938
		C465.323,440.504,471.594,438.684,471.482,433.59z M38.919,109.561V71.496h173.85c-6.963,10.672-14.479,24.328-20.404,38.065
		H38.919z M306.95,282.455c-0.658,2.104,0.089,4.395,1.86,5.71l26.086,19.372v49.761l-53.099-12.948
		c-2.138-0.512-4.318,0.348-5.536,2.146c-8.34,12.408-13.677,21.088-26.217,21.088c-12.597,0-17.975-8.832-26.237-21.097
		c-1.219-1.805-3.44-2.656-5.537-2.138l-53.099,12.948v-49.754l26.1-19.373c1.765-1.307,2.512-3.597,1.868-5.702
		c-26.569-85.827-3.902-177.932,56.905-241.363C312.924,106.668,332.709,199.507,306.95,282.455z M461.08,109.561H307.704
		c-5.723-13.316-12.845-26.521-20.361-38.065h173.744v38.065H461.08z M192.364,109.561l-4.062,10.381"/>
	<path fill="#E27B7D" d="M68.063,76.832H51.037c-2.864,0-5.19,2.326-5.19,5.19v17.026c0,2.865,2.326,5.19,5.19,5.19h17.026
		c2.865,0,5.19-2.325,5.19-5.19V82.022C73.254,79.157,70.929,76.832,68.063,76.832z M62.873,93.857h-6.645v-6.645h6.645V93.857z"/>
	<path fill="#E27B7D" d="M103.755,76.832H86.736c-2.865,0-5.19,2.326-5.19,5.19v17.026c0,2.865,2.325,5.19,5.19,5.19h17.019
		c2.865,0,5.191-2.325,5.191-5.19V82.022C108.946,79.157,106.62,76.832,103.755,76.832z M98.564,93.857h-6.638v-6.645h6.638V93.857z
		"/>
	<path fill="#E27B7D" d="M139.446,76.832h-17.025c-2.865,0-5.19,2.326-5.19,5.19v17.026c0,2.865,2.325,5.19,5.19,5.19h17.025
		c2.865,0,5.191-2.325,5.191-5.19V82.022C144.638,79.157,142.312,76.832,139.446,76.832z M134.256,93.857h-6.644v-6.645h6.644
		V93.857z"/>
	<path fill="#E27B7D" d="M384.929,206.034l-7.163,8.533c7.128,6.215,15.171,9.779,24.133,10.693v7.163h6.277v-7.059
		c6.673-0.325,12.037-2.285,16.091-5.891c4.057-3.598,6.086-8.257,6.086-13.979c0-5.724-1.772-10.091-5.303-13.095
		c-3.529-3.011-9.06-5.399-16.582-7.164h-0.292v-18.444c5.039,0.72,9.71,2.617,14.029,5.689l6.375-9.025
		c-6.409-4.381-13.206-6.838-20.404-7.357v-5.003h-6.277v4.9c-6.339,0.326-11.495,2.291-15.448,5.89
		c-3.957,3.599-5.93,8.222-5.93,13.884c0,5.661,1.716,9.925,5.148,12.804c3.433,2.879,8.837,5.198,16.237,6.962v19.033
		C396.071,213.653,390.424,210.809,384.929,206.034z M408.176,197.208c3.924,1.177,6.604,2.437,8.049,3.779
		c1.434,1.336,2.16,3.156,2.16,5.447c0,2.291-0.921,4.187-2.755,5.689c-1.826,1.502-4.312,2.422-7.454,2.748V197.208z
		 M394.444,179.789c-1.307-1.28-1.965-3.011-1.965-5.197c0-2.188,0.838-4.022,2.498-5.496c1.675-1.467,3.974-2.339,6.921-2.596
		v16.97C398.23,182.294,395.745,181.069,394.444,179.789z"/>
	<path fill="#E27B7D" d="M99.201,388.97v-7.066c6.672-0.325,12.029-2.29,16.084-5.89c4.056-3.592,6.084-8.257,6.084-13.979
		c0-5.725-1.765-10.092-5.295-13.103c-3.537-3.01-9.066-5.399-16.582-7.163h-0.291v-18.444c5.031,0.719,9.71,2.615,14.029,5.688
		l6.374-9.024c-6.409-4.381-13.213-6.839-20.403-7.358v-5.003h-6.278v4.9c-6.346,0.325-11.495,2.291-15.446,5.89
		c-3.96,3.599-5.938,8.222-5.938,13.883c0,5.663,1.716,9.926,5.149,12.806c3.433,2.878,8.845,5.196,16.243,6.961v19.034
		c-5.827-0.914-11.482-3.759-16.971-8.534l-7.162,8.534c7.128,6.214,15.17,9.777,24.133,10.691v7.164h6.271V388.97z M99.201,353.749
		c3.918,1.177,6.603,2.437,8.042,3.779c1.439,1.335,2.166,3.156,2.166,5.446c0,2.291-0.921,4.187-2.747,5.688
		c-1.835,1.502-4.319,2.423-7.454,2.747v-17.661H99.201z M85.47,336.335c-1.308-1.28-1.966-3.01-1.966-5.197
		c0-2.193,0.838-4.021,2.499-5.495c1.668-1.468,3.973-2.34,6.92-2.596v16.971C89.262,338.834,86.771,337.608,85.47,336.335z"/>
</g>
</svg>
