<svg baseProfile="tiny" xmlns="http://www.w3.org/2000/svg" width="250" height="250">
  <g fill="#454D5D">
    <path d="M23.1 30.65h7.55v7.55H23.1zM38.2 30.65h7.55v7.55H38.2zM53.29 30.65h7.55v7.55h-7.55zM234.44 226.9h-98.12v7.55H242V60.85h-7.55z"/>
    <path d="M121.23 15.55H8V53.3h113.22v26.42H23.1v113.22h98.13v33.97H15.55V60.84H8.01v173.6h113.22V242h7.54V8.01h-7.54v7.54zm-12.89 113.22l12.89 12.89v28.63H57.66l35.13-41.52h15.55zm3.13-7.54h-8.77a22.67 22.67 0 0 1 18.53-18.53v28.29l-9.76-9.76zM15.55 45.75V23.1h105.68v22.65H15.55zm15.1 139.63V87.26h90.58v7.8a30.22 30.22 0 0 0-26.16 26.17h-5.79l-41.51 49.06H38.2v7.55h83.03v7.55H30.64zM136.32 15.55v7.55h98.13v22.65h-98.13v7.54H242V15.55zM136.32 79.71h7.55v7.55h-7.55zM151.42 79.71h33.97v7.55h-33.97zM192.93 79.71h18.87v7.55h-18.87zM219.35 79.71h7.55v7.55h-7.55zM136.32 94.81h15.1v7.55h-15.1zM158.97 94.81h18.87v7.55h-18.87zM185.38 94.81h18.87v7.55h-18.87zM211.8 94.81h15.1v7.55h-15.1zM136.32 109.9h75.48v7.55h-75.48zM219.35 109.9h7.55v7.55h-7.55zM204.26 125h22.64v7.55h-22.64zM189.16 125h7.55v7.55h-7.55zM174.06 125h7.55v7.55h-7.55zM151.42 125h15.1v7.55h-15.1zM136.32 125h7.55v7.55h-7.55zM136.32 140.1h30.19v7.55h-30.19zM174.06 140.1h15.1v7.55h-15.1zM196.71 140.1h15.1v7.55h-15.1zM219.35 140.1h7.55v7.55h-7.55zM136.32 155.19h22.64v7.55h-22.64zM166.52 155.19h7.55v7.55h-7.55zM181.61 155.19h15.1v7.55h-15.1zM204.26 155.19h22.64v7.55h-22.64zM136.32 170.29h45.29v7.55h-45.29zM189.16 170.29h15.1v7.55h-15.1zM211.8 170.29h15.1v7.55h-15.1zM136.32 185.38h7.55v7.55h-7.55zM151.42 185.38h15.1v7.55h-15.1zM174.06 185.38h15.1v7.55h-15.1zM196.71 185.38h15.1v7.55h-15.1zM219.35 185.38h7.55v7.55h-7.55z"/>
  </g>
</svg>
