<?xml version="1.0" encoding="utf-8"?>
<!-- Generator: Adobe Illustrator 16.0.0, SVG Export Plug-In . SVG Version: 6.00 Build 0)  -->
<!DOCTYPE svg PUBLIC "-//W3C//DTD SVG 1.1//EN" "http://www.w3.org/Graphics/SVG/1.1/DTD/svg11.dtd">
<svg version="1.1" id="Layer_1" xmlns="http://www.w3.org/2000/svg" xmlns:xlink="http://www.w3.org/1999/xlink" x="0px" y="0px"
	 width="600px" height="600px" viewBox="0 0 600 600" enable-background="new 0 0 600 600" xml:space="preserve">
<path fill="#6B36E7" d="M300,4.434C136.453,4.434,4.434,136.453,4.434,300S136.453,595.566,300,595.566S595.566,463.547,595.566,300
	S463.547,4.434,300,4.434z M106.763,161h386.474c5.334,0,10.078,1.186,14.227,4.149C381.798,270.66,373.502,277.179,300,338.233
	C234.204,283.7,187.377,243.985,92.537,165.149C96.687,162.186,101.43,161,106.763,161z M79.497,188.268
	c0-2.372,0.593-4.743,1.185-7.114l132.776,112.03L79.497,405.215V188.268z M493.236,439H106.763
	c-8.891,0-17.189-4.741-21.932-11.263l144.631-121.513L300,365.5l70.536-59.275l144.632,121.513
	C510.426,434.259,502.128,439,493.236,439z M386.541,293.184l133.369-112.03c0.593,2.371,0.593,4.742,0.593,7.114v216.947
	L386.541,293.184z"/>
</svg>
