<?xml version="1.0" encoding="utf-8"?>
<!-- Generator: Adobe Illustrator 16.0.0, SVG Export Plug-In . SVG Version: 6.00 Build 0)  -->
<!DOCTYPE svg PUBLIC "-//W3C//DTD SVG 1.1//EN" "http://www.w3.org/Graphics/SVG/1.1/DTD/svg11.dtd">
<svg version="1.1" id="Layer_1" xmlns="http://www.w3.org/2000/svg" xmlns:xlink="http://www.w3.org/1999/xlink" x="0px" y="0px"
	 width="500px" height="500px" viewBox="0 0 500 500" enable-background="new 0 0 500 500" xml:space="preserve">
<g>
	<path fill="#FFFFFF" d="M459.782,252.627c-2.065-8.542-7.338-15.771-14.839-20.355c-7.502-4.585-16.342-5.979-24.889-3.907
		l-9.836,2.377l-0.795-3.305c1.939-1.524,3.622-3.321,4.856-5.432c2.827-4.834,3.481-10.699,1.843-16.517
		c-2.195-7.797-8.6-13.57-16.312-15.146c-2.036-5.426-5.888-9.914-11.001-12.774c-5.732-3.214-12.381-4.01-18.717-2.218
		c-5.751,1.621-10.693,5.323-13.924,10.266c-2.736-0.432-5.545-0.318-8.298,0.348c-2.73,0.66-5.29,1.848-7.53,3.481
		c-6.78-5.376-15.955-6.996-24.412-3.959c-5.967,2.15-10.892,6.558-13.815,12.206c-1.734-0.068-3.509,0.182-5.222,0.591
		c-2.729,0.66-5.29,1.854-7.536,3.481c-7.319-5.808-17.399-7.189-26.312-3.191c-8.525,3.823-14.327,12.394-14.782,21.83
		c-0.126,2.628,0.147,5.21,0.796,7.69c-1.199,0.443-2.365,1.006-3.48,1.689c-6.006,3.668-9.675,10.533-9.356,17.483
		c0.273,5.955,3.129,11.387,7.832,14.914c2.508,1.883,5.38,3.059,8.378,3.588l38.323,158.767l-1.404,0.342
		c-1.469,0.352-2.729,1.278-3.521,2.559c-0.785,1.291-1.029,2.839-0.677,4.306l3.617,14.965c1.917,7.934,9.032,13.269,16.858,13.269
		c1.343,0,2.707-0.153,4.073-0.489l137.226-33.159c4.506-1.081,8.31-3.861,10.728-7.814c2.411-3.953,3.14-8.611,2.054-13.115
		l-3.618-14.971c-0.74-3.048-3.805-4.925-6.865-4.186l-1.308,0.318l-5.501-22.739l9.795-2.372
		c17.644-4.261,28.529-22.086,24.264-39.728L459.782,252.627z M320.985,252.986c-0.17-0.705,0.074-1.252,0.239-1.519
		c0.158-0.263,0.534-0.729,1.234-0.899l76.385-18.462l1.434,5.921c-15.039,4.26-22.875,9.305-30.423,14.207
		c-7.975,5.178-15.505,10.073-32.402,14.152c-4.591,1.108-8.714,1.791-12.679,2.287L320.985,252.986z M247.586,246.735
		c-0.131-2.827,1.439-5.738,3.913-7.239c1.604-0.979,3.333-1.354,5.193-1.184c2.189,0.244,4.328-0.83,5.472-2.725
		c1.138-1.894,1.075-4.277-0.153-6.107c-1.729-2.565-2.526-5.432-2.377-8.532c0.243-5.198,3.416-9.908,8.07-11.995
		c6.062-2.725,13.081-0.979,17.058,4.248c1.074,1.417,2.753,2.247,4.526,2.247c0.012,0,0.029,0,0.046,0
		c1.791-0.011,3.47-0.871,4.532-2.314c1.418-1.917,3.39-3.231,5.7-3.789c1.593-0.386,3.195-0.375,4.766,0.029
		c2.98,0.779,6.001-0.967,6.865-3.902c1.28-4.34,4.487-7.803,8.583-9.276c5.818-2.104,12.229-0.21,15.965,4.681
		c1.081,1.428,2.97,2.333,4.567,2.247c1.792-0.012,3.469-0.865,4.533-2.31c1.415-1.917,3.39-3.23,5.705-3.793
		c2.104-0.501,4.293-0.318,6.308,0.552c1.421,0.608,3.036,0.608,4.465,0.011c1.427-0.603,2.548-1.769,3.094-3.213
		c1.513-3.976,4.709-6.917,8.771-8.06c3.406-0.967,6.984-0.541,10.066,1.189c3.083,1.735,5.312,4.562,6.274,7.962
		c0.113,0.398,0.193,0.802,0.267,1.194c0.506,2.696,2.855,4.635,5.591,4.635c0.041-0.005,0.097,0,0.154,0
		c4.47,0,8.423,2.986,9.634,7.292c0.797,2.815,0.541,5.551-0.711,7.689c-1.239,2.122-3.451,3.623-6.397,4.334l-78.279,18.912
		c-3.476,0.835-6.41,2.98-8.275,6.034c-1.86,3.049-2.424,6.638-1.588,10.108l8.19,33.92c0.591,2.439,0.193,4.966-1.114,7.11
		c-1.309,2.149-3.38,3.656-5.825,4.249c-5.05,1.2-10.141-1.895-11.363-6.939l-8.19-33.91c-1.479-6.12-6.972-10.243-13.013-10.243
		c-1.036,0-2.088,0.119-3.134,0.376l-17.718,4.283c-2.384,0.584-4.902,0.061-6.882-1.422
		C248.872,251.576,247.706,249.323,247.586,246.735z M263.882,264.726l14.265-3.447c1.086-0.273,2.161,0.403,2.423,1.474
		l1.258,5.203c-5.165,0.388-10.598,1.27-16.534,2.618L263.882,264.726z M447.94,412.582c-0.831,1.354-2.139,2.309-3.687,2.69
		l-137.227,33.159c-3.212,0.762-6.426-1.205-7.2-4.396l-2.28-9.437l148.823-35.963l2.281,9.431
		C449.026,409.613,448.776,411.218,447.94,412.582z M301.807,421.859L267.96,281.623c6.052-1.364,11.453-2.143,16.586-2.405
		l4.214,17.444c2.303,9.51,10.835,15.908,20.208,15.908c1.615,0,3.254-0.194,4.886-0.592c5.397-1.303,9.964-4.63,12.859-9.367
		c2.895-4.738,3.771-10.318,2.47-15.715l-1.713-7.092c4.005-0.553,8.145-1.271,12.661-2.367
		c18.786-4.539,27.494-10.192,35.923-15.67c7.047-4.572,13.775-8.924,26.903-12.694l33.909,140.144L301.807,421.859z
		 M449.538,350.393l-9.799,2.372l-26.853-110.966l9.829-2.371c5.585-1.342,11.375-0.444,16.289,2.553
		c4.914,2.998,8.36,7.729,9.715,13.332l16.693,69.082C468.206,335.936,461.085,347.6,449.538,350.393z"/>
	<path fill="#FFFFFF" d="M210.673,304.847l-1.405-0.341l38.324-158.778c2.992-0.529,5.864-1.7,8.373-3.577
		c4.703-3.521,7.559-8.958,7.831-14.908c0.325-6.967-3.35-13.833-9.361-17.489c-1.115-0.683-2.281-1.245-3.476-1.689
		c0.65-2.48,0.922-5.062,0.797-7.69c-0.455-9.437-6.257-18.001-14.783-21.83c-8.923-4.015-18.996-2.616-26.316,3.191
		c-2.247-1.632-4.806-2.821-7.542-3.486c-1.711-0.404-3.549-0.632-5.215-0.591c-2.923-5.643-7.843-10.057-13.815-12.206
		c-8.469-3.049-17.644-1.422-24.411,3.958c-2.247-1.632-4.807-2.821-7.543-3.481c-2.746-0.671-5.551-0.779-8.292-0.347
		c-3.231-4.943-8.174-8.645-13.923-10.272c-12.382-3.492-25.253,3.18-29.712,14.999c-7.707,1.575-14.112,7.354-16.313,15.146
		c-1.643,5.818-0.984,11.694,1.843,16.522c1.234,2.111,2.918,3.902,4.858,5.426l-0.803,3.304l-9.828-2.371
		c-17.643-4.277-35.463,6.62-39.728,24.263l-16.699,69.083c-2.064,8.549-0.677,17.393,3.908,24.895
		c4.583,7.502,11.813,12.775,20.361,14.833l9.794,2.366l-5.5,22.74l-1.308-0.32c-3.048-0.75-6.125,1.139-6.865,4.188l-3.617,14.976
		c-1.086,4.499-0.353,9.151,2.058,13.11c2.417,3.953,6.223,6.734,10.728,7.814l137.226,33.158c1.36,0.337,2.735,0.495,4.106,0.495
		c3.151,0,6.25-0.864,9.003-2.548c3.954-2.411,6.729-6.223,7.821-10.721l3.618-14.971c0.353-1.466,0.114-3.014-0.676-4.305
		C213.403,306.125,212.141,305.199,210.673,304.847z M234.732,150.545c-5.938-1.343-11.37-2.229-16.534-2.617l1.257-5.204
		c0.255-1.069,1.33-1.706,2.411-1.479l14.276,3.453L234.732,150.545z M94.849,88.555c1.212-4.305,5.171-7.292,9.635-7.292
		c0.058,0,0.114-0.005,0.153,0c2.742,0,5.097-1.962,5.592-4.664c0.074-0.381,0.153-0.779,0.261-1.166
		c1.985-7.024,9.311-11.108,16.341-9.157c4.061,1.149,7.258,4.089,8.776,8.07c0.551,1.445,1.672,2.605,3.094,3.208
		c1.428,0.603,3.037,0.591,4.465-0.012c2.013-0.864,4.191-1.052,6.296-0.552c2.321,0.563,4.294,1.877,5.71,3.794
		c1.064,1.444,2.742,2.297,4.534,2.309c2.008,0.011,3.48-0.819,4.567-2.247c3.719-4.892,10.13-6.785,15.959-4.681
		c4.095,1.474,7.303,4.937,8.583,9.276c0.864,2.935,3.901,4.647,6.865,3.902c1.575-0.398,3.18-0.41,4.754-0.034
		c2.321,0.563,4.295,1.877,5.711,3.799c1.063,1.445,2.742,2.297,4.533,2.309c0.012,0,0.028,0,0.04,0c1.775,0,3.453-0.83,4.528-2.247
		c3.97-5.232,10.982-6.979,17.057-4.249c4.653,2.088,7.827,6.797,8.071,11.99c0.148,3.106-0.655,5.978-2.378,8.537
		c-1.234,1.832-1.296,4.215-0.159,6.109c1.143,1.894,3.282,2.958,5.472,2.725c1.848-0.17,3.588,0.205,5.187,1.177
		c2.474,1.513,4.049,4.419,3.913,7.246c-0.119,2.588-1.29,4.84-3.298,6.342c-1.974,1.479-4.482,2.002-6.882,1.421l-17.717-4.288
		c-7.184-1.712-14.413,2.702-16.142,9.862l-8.196,33.916c-0.592,2.44-2.099,4.51-4.243,5.819c-2.15,1.303-4.664,1.706-7.115,1.115
		c-5.045-1.223-8.156-6.313-6.939-11.358l8.196-33.921c0.837-3.469,0.273-7.059-1.587-10.107c-1.859-3.049-4.8-5.193-8.275-6.029
		l-78.279-18.917c-2.946-0.711-5.159-2.212-6.398-4.333C94.309,94.101,94.053,91.371,94.849,88.555z M101.174,112.085l76.391,18.469
		c0.7,0.165,1.076,0.63,1.234,0.893c0.16,0.267,0.405,0.813,0.239,1.513l-3.793,15.692c-3.959-0.495-8.088-1.177-12.678-2.287
		c-16.899-4.084-24.43-8.975-32.403-14.15c-7.548-4.903-15.386-9.948-30.423-14.208L101.174,112.085z M50.48,230.366
		c-11.546-2.792-18.673-14.458-15.88-25.999l16.7-69.083c1.348-5.596,4.8-10.329,9.714-13.332c4.908-2.992,10.699-3.896,16.29-2.554
		l9.828,2.372L60.279,232.738L50.48,230.366z M97.067,129.052c13.128,3.771,19.856,8.116,26.903,12.695
		c8.424,5.472,17.136,11.131,35.923,15.67c4.517,1.097,8.657,1.814,12.661,2.366l-1.711,7.092
		c-2.69,11.137,4.18,22.393,15.323,25.083c1.632,0.392,3.281,0.591,4.919,0.591c3.777,0,7.491-1.04,10.795-3.06
		c4.738-2.895,8.066-7.462,9.374-12.854l4.214-17.445c5.13,0.262,10.533,1.041,16.585,2.407l-33.848,140.235L63.151,269.195
		L97.067,129.052z M200.191,324.008c-0.768,3.191-3.994,5.137-7.195,4.392l-137.227-33.16c-1.546-0.375-2.854-1.33-3.686-2.69
		c-0.83-1.358-1.08-2.963-0.71-4.51l2.28-9.44l148.824,35.962L200.191,324.008z"/>
	<path fill="#FFFFFF" d="M276.224,77.646c3.089,0,5.625-2.474,5.688-5.574l0.517-26.243c0.063-3.14-2.435-5.739-5.574-5.801
		c-0.034,0-0.073,0-0.113,0c-3.089,0-5.625,2.474-5.688,5.574l-0.518,26.243c-0.062,3.139,2.435,5.739,5.574,5.801
		C276.145,77.646,276.185,77.646,276.224,77.646z"/>
	<path fill="#FFFFFF" d="M308.854,95.523l23.388-16.318c2.576-1.797,3.207-5.341,1.409-7.923c-1.796-2.565-5.34-3.197-7.922-1.411
		L302.341,86.19c-2.576,1.797-3.207,5.34-1.41,7.922c1.109,1.581,2.873,2.434,4.67,2.434
		C306.727,96.546,307.864,96.217,308.854,95.523z"/>
</g>
</svg>
