<?xml version="1.0" encoding="utf-8"?>
<!-- Generator: Adobe Illustrator 16.0.0, SVG Export Plug-In . SVG Version: 6.00 Build 0)  -->
<!DOCTYPE svg PUBLIC "-//W3C//DTD SVG 1.1//EN" "http://www.w3.org/Graphics/SVG/1.1/DTD/svg11.dtd">
<svg version="1.1" id="Layer_1" xmlns="http://www.w3.org/2000/svg" xmlns:xlink="http://www.w3.org/1999/xlink" x="0px" y="0px"
	 width="500px" height="500px" viewBox="0 0 500 500" enable-background="new 0 0 500 500" xml:space="preserve">
<g>
	<path fill="#6B36E7" d="M155.897,146.498c0,25.982,21.063,47.045,47.045,47.045s47.046-21.063,47.046-47.045
		s-21.063-47.046-47.046-47.046C176.973,99.483,155.928,120.528,155.897,146.498z M231.17,146.498
		c0,15.59-12.638,28.228-28.228,28.228c-15.589,0-28.227-12.638-28.227-28.228c0-15.589,12.638-28.227,28.227-28.227
		C218.532,118.271,231.17,130.908,231.17,146.498z"/>
	<g>
		<path fill="#6B36E7" d="M328.018,341.331c3.737,3.611,9.694,3.508,13.305-0.23c3.521-3.646,3.521-9.428,0-13.073l-49.803-49.803
			l49.803-49.803c3.609-3.738,3.506-9.694-0.231-13.304c-3.646-3.521-9.428-3.521-13.073,0l-49.803,49.803l-40.393-40.395
			c-3.674-3.672-9.63-3.672-13.304,0L67.32,381.724h-5.514c-10.394,0-18.818-8.424-18.818-18.817V80.634
			c0-10.393,8.425-18.818,18.818-18.818h338.726c10.395,0,18.818,8.425,18.818,18.818v37.637c0,5.196,4.213,9.409,9.409,9.409
			s9.409-4.212,9.409-9.409V80.634c0-20.786-16.85-37.636-37.637-37.636H61.807c-20.786,0-37.636,16.851-37.636,37.636v282.272
			c0,20.787,16.85,37.637,37.636,37.637h9.409c2.495-0.001,4.889-0.992,6.652-2.757L231.17,244.483L328.018,341.331z"/>
		<path fill="#E27B7D" d="M474.865,245.791L427.819,151.7c-0.396-0.784-0.919-1.498-1.542-2.117
			c-3.386-3.799-9.207-4.134-13.006-0.75c-0.265,0.235-0.516,0.486-0.751,0.75c-0.626,0.619-1.146,1.333-1.544,2.117l-47.044,94.091
			c-2.305,4.694-0.368,10.366,4.325,12.668c0.349,0.172,0.707,0.322,1.075,0.449c12.42,4.266,21.029,15.615,21.791,28.727v9.407
			h-9.409c-5.196,0-9.409,4.213-9.409,9.41c0,5.196,4.213,9.409,9.409,9.409h9.409v65.862H127.67c-5.196,0-9.409,4.214-9.409,9.409
			c0,5.197,4.212,9.41,9.409,9.41h263.454v37.635c-0.215,10.179,7.861,18.604,18.037,18.82c0.261,0.004,0.521,0.004,0.781,0h18.817
			c10.179,0.214,18.604-7.862,18.818-18.04c0.006-0.26,0.006-0.52,0-0.78V315.861h9.408c5.197,0,9.411-4.213,9.411-9.409
			c0-5.197-4.214-9.41-9.411-9.41h-9.408v-9.407c0.762-13.107,9.373-24.451,21.792-28.708c4.934-1.63,7.612-6.952,5.981-11.887
			c-0.146-0.441-0.324-0.871-0.534-1.286L474.865,245.791z M428.76,438.178h-18.817V315.861h18.817V438.178z M428.76,287.635v9.407
			h-18.817v-9.407c-0.066-17.481-9.633-33.544-24.973-41.928l24.973-49.943v44.825c0,5.197,4.213,9.41,9.408,9.41
			c5.197,0,9.409-4.213,9.409-9.41v-44.825l24.973,49.943C438.383,254.08,428.812,270.149,428.76,287.635z"/>
	</g>
</g>
</svg>
