<?xml version="1.0" encoding="utf-8"?>
<!-- Generator: Adobe Illustrator 16.0.0, SVG Export Plug-In . SVG Version: 6.00 Build 0)  -->
<!DOCTYPE svg PUBLIC "-//W3C//DTD SVG 1.1//EN" "http://www.w3.org/Graphics/SVG/1.1/DTD/svg11.dtd">
<svg version="1.1" id="Layer_1" xmlns="http://www.w3.org/2000/svg" xmlns:xlink="http://www.w3.org/1999/xlink" x="0px" y="0px"
	 width="500px" height="500px" viewBox="0 0 500 500" enable-background="new 0 0 500 500" xml:space="preserve">
<path fill="#6B36E7" d="M372.968,221.993c64.781,0,98.318-16.042,100.609-22.357c-2.235-6.316-35.772-22.358-100.609-22.358
	c-64.838,0-98.821,16.266-100.61,22.358C274.146,205.728,307.682,221.993,372.968,221.993z"/>
<path fill="#6B36E7" d="M272,226.8v31.357c19,4.247,35.818,13.835,49.31,27.337c13.033,0.205,26.024,3.506,37.628,9.506h14.03
	C437.918,295,472,278.559,474,272.297V226.8c-24,11.961-63.496,17.551-101,17.551S296,238.762,272,226.8z"/>
<path fill="#6B36E7" d="M406.324,365.697C451.934,361.281,473,348.93,474,344.234V299.52c-21,10.396-53.765,15.984-86.798,17.158
	C398.641,330.568,405.268,347.732,406.324,365.697z"/>
<path fill="#6B36E7" d="M93,385.932c1-36.524,28.234-67.029,64.597-70.482c3.655-8.15,8.403-15.779,14.403-22.692V65H26v325h67
	C93,388,93,387.217,93,385.932z M49,99h100v22H49V99z M49,155h100v22H49V155z M49,211h100v22H49V211z M49,267h100v22H49V267z
	 M59.959,344.961c-6.174,0-11.179-5.006-11.179-11.18s5.005-11.18,11.179-11.18c6.175,0,11.18,5.006,11.18,11.18
	S66.134,344.961,59.959,344.961z M87.906,333.781c0-6.174,5.005-11.18,11.179-11.18s11.179,5.006,11.179,11.18
	s-5.005,11.18-11.179,11.18S87.906,339.955,87.906,333.781z"/>
<path fill="#6B36E7" d="M378.434,434.391C439.916,433.496,472,418.07,474,412.034V371.9c-18,8.889-43.312,14.197-69.079,16.434
	C401.237,406.098,391.893,422.228,378.434,434.391z"/>
<path fill="#E27B7D" d="M324.19,307.68c-1.255-0.037-2.51-0.037-3.764,0l-8.385,0.447l-3.522-3.97
	c-28.574-32.421-78.021-35.541-110.443-6.966c-10.082,8.883-17.705,20.367-22.136,33.054L173.257,338h-8.998
	c-26.707-2-49.778,18.322-51.532,45.027c-1.755,26.706,18.473,49.508,45.18,51.26c2.189,0.145,4.387,0.713,6.575-0.287H250
	c27.784,0,50.307-22,50.307-50h22.356c-0.03,19-7.322,37-20.347,50h18.111c34.989,1,64.198-26.288,65.238-61.277
	C386.704,337.732,359.182,308.719,324.19,307.68z M250,333.781c-28,0-50.305,22.219-50.305,50.219h-22.358
	c0-40,32.663-72.576,72.663-72.576V333.781z"/>
<path fill="#6B36E7" d="M49,412v22h63.835c-6.124-6-10.977-14-14.309-22H49z"/>
</svg>
