<?xml version="1.0" encoding="utf-8"?>
<!-- Generator: Adobe Illustrator 16.0.0, SVG Export Plug-In . SVG Version: 6.00 Build 0)  -->
<!DOCTYPE svg PUBLIC "-//W3C//DTD SVG 1.1//EN" "http://www.w3.org/Graphics/SVG/1.1/DTD/svg11.dtd">
<svg version="1.1" id="Layer_1" xmlns="http://www.w3.org/2000/svg" xmlns:xlink="http://www.w3.org/1999/xlink" x="0px" y="0px"
	 width="500px" height="500px" viewBox="0 0 500 500" enable-background="new 0 0 500 500" xml:space="preserve">
<g>
	<path fill="#E27B7D" d="M434.108,238.444c-1.038-4.148-5.704-6.741-9.853-5.185c-4.147,1.037-6.74,5.703-5.185,9.851
		c0.52,2.592,16.591,60.661-34.218,119.768c-2.593,3.11-2.593,8.295,0.518,10.888c1.556,1.036,3.111,2.074,5.185,2.074
		c2.074,0,4.148-1.038,5.704-2.592C453.291,306.882,434.626,241.036,434.108,238.444z"/>
	<path fill="#E27B7D" d="M475.586,229.628c-1.038-4.146-5.704-6.221-9.852-5.185c-4.148,1.038-6.741,5.704-5.186,9.852
		c0,1.037,23.851,83.993-47.698,165.912c-2.593,3.11-2.593,8.295,0.519,10.887c1.555,1.038,3.11,2.075,5.185,2.075
		c2.073,0,4.146-1.037,5.702-2.593C501.51,321.917,476.622,233.259,475.586,229.628z"/>
	<path fill="#E27B7D" d="M133.913,120.232c3.63-2.592,4.148-7.259,1.556-10.888c-2.592-3.629-7.258-4.147-10.888-1.555
		c-2.592,1.555-60.143,44.07-58.069,134.284c0,4.148,3.629,7.777,7.777,7.777l0,0c4.148,0,7.777-3.629,7.777-7.777
		C80.511,160.154,131.839,121.787,133.913,120.232z"/>
	<path fill="#E27B7D" d="M106.953,86.531c3.629-2.592,4.148-7.259,1.556-10.888s-7.259-4.147-10.889-1.555
		c-3.11,2.074-80.363,59.106-77.771,180.947c0,4.147,3.63,7.777,7.777,7.777l0,0c4.148,0,7.777-3.63,7.777-7.777
		C32.811,141.489,105.916,87.05,106.953,86.531z"/>
</g>
<path fill="#6B36E7" d="M396.26,196.447c2.073-8.813,0.518-17.628-4.667-25.405c-4.666-7.777-12.443-12.961-21.257-15.036l0,0
	c-7.26-1.555-15.036-1.037-21.775,2.592l4.665-21.257c4.148-18.146-7.258-36.293-25.404-40.44l0,0
	c-7.777-1.556-15.036-0.519-21.776,2.592l0.519-2.074c2.073-8.814,0.519-17.628-4.666-25.405
	c-4.667-7.777-12.443-12.961-21.258-15.036l0,0c-8.813-2.074-17.627-0.519-25.404,4.667c-7.777,4.667-12.962,12.443-15.036,21.257
	l-2.074,10.369c-4.667-5.703-10.888-9.851-18.666-11.406l0,0c-18.146-4.148-36.293,7.259-40.44,25.924l-11.407,51.329
	c-17.627-3.629-35.255,8.295-39.403,25.924l-21.776,97.991l0,0c-15.554,71.03,29.034,141.543,100.065,157.616h0.519
	c34.219,7.776,69.993,1.554,99.546-17.629c29.553-19.184,50.292-48.219,58.068-82.956L396.26,196.447z M351.67,336.954
	c-13.998,64.289-77.771,104.73-142.06,90.732h-0.519c-63.772-14.518-104.213-77.771-90.214-142.062l21.776-97.991
	c2.592-11.407,13.48-18.146,24.887-15.554l0,0c1.555,0.519,2.592,0.519,3.629,1.037l0,0c3.629,1.556,6.741,4.148,8.814,7.777
	c3.111,4.666,4.148,10.369,2.592,15.554l-13.48,64.81c0,0,0,0,0,0.519l0,0c0,0,0,0,0,0.518l0,0l0,0v0.52c0,0.518,0,1.036,0,1.036
	l0,0v0.52l0,0v0.518v0.519c0,0,0,0.518,0.518,0.518c0,0,0,0.52,0.519,0.52l0,0l0.519,0.519l0.518,0.518l0,0c0,0,0,0,0.519,0.52l0,0
	c24.887,17.627,36.812,48.735,30.59,77.771c-0.518,3.629,1.556,7.258,5.185,7.777l0,0c3.629,0.518,7.259-1.556,7.777-5.186
	c7.259-32.663-5.703-67.92-32.145-88.659l13.48-61.179c2.074-8.814,0.519-17.628-4.666-25.405
	c-2.593-4.148-6.222-7.777-9.851-10.369l11.925-53.403c2.592-11.406,13.48-18.146,24.886-15.554l0,0
	c10.888,2.592,18.146,13.48,15.554,24.887l-21.775,97.991c-1.038,3.63,1.555,7.259,5.185,7.777c3.629,0.519,7.259-1.554,7.777-5.185
	l30.07-134.284c1.038-5.185,4.667-9.851,9.334-12.962c4.666-3.11,10.369-4.148,15.554-2.592l0,0
	c5.185,1.037,9.851,4.667,12.962,9.333c3.11,4.666,4.146,10.369,2.593,15.554l-32.665,144.653c-1.036,3.629,1.557,7.259,5.185,7.777
	c3.63,0.519,7.259-1.556,7.777-5.185l26.441-116.656c2.593-11.406,13.481-18.146,24.888-15.554l0,0
	c11.406,2.592,18.146,13.48,15.554,24.887l-10.369,47.181l0,0l-21.775,97.992c-1.038,3.629,1.554,6.74,5.185,7.776l0,0
	c3.629,0.52,7.258-1.556,7.777-5.185l20.738-96.954l0,0c1.037-5.185,4.666-9.851,9.333-12.962
	c4.666-3.111,10.369-4.148,15.554-2.592l0,0c5.185,1.037,9.851,4.666,12.962,9.332c3.11,4.667,4.148,10.37,2.593,15.554
	L351.67,336.954L351.67,336.954z"/>
</svg>
