<?xml version="1.0" encoding="utf-8"?>
<!-- Generator: Adobe Illustrator 16.0.0, SVG Export Plug-In . SVG Version: 6.00 Build 0)  -->
<!DOCTYPE svg PUBLIC "-//W3C//DTD SVG 1.1//EN" "http://www.w3.org/Graphics/SVG/1.1/DTD/svg11.dtd">
<svg version="1.1" id="Layer_1" xmlns="http://www.w3.org/2000/svg" xmlns:xlink="http://www.w3.org/1999/xlink" x="0px" y="0px"
	 width="600px" height="600px" viewBox="0 0 600 600" enable-background="new 0 0 600 600" xml:space="preserve">
<path fill="#6B36E7" d="M556.185-0.25H43.825c-24.534,0-44.435,19.266-44.435,43.016V557.24c0,23.751,19.901,43.01,44.435,43.01
	h512.359c24.533,0,44.425-19.259,44.425-43.01V42.766C600.609,19.017,580.718-0.25,556.185-0.25z M181.641,502.435h-90.81V231.273
	h90.81V502.435z M136.24,194.248h-0.589c-30.477,0-50.182-20.819-50.182-46.842c0-26.607,20.302-46.849,51.368-46.849
	s50.191,20.242,50.78,46.849C187.616,173.429,167.902,194.248,136.24,194.248z M509.078,502.435h-90.795V357.369
	c0-36.456-13.153-61.32-46.007-61.32c-25.083,0-40.035,16.771-46.588,32.97c-2.401,5.782-2.988,13.889-2.988,21.994v151.421h-90.806
	c0,0,1.193-245.72,0-271.161H322.7v38.408c12.062-18.477,33.637-44.772,81.834-44.772c59.745,0,104.544,38.754,104.544,122.045
	V502.435z"/>
</svg>
