<?xml version="1.0" encoding="utf-8"?>
<!-- Generator: Adobe Illustrator 16.0.0, SVG Export Plug-In . SVG Version: 6.00 Build 0)  -->
<!DOCTYPE svg PUBLIC "-//W3C//DTD SVG 1.1//EN" "http://www.w3.org/Graphics/SVG/1.1/DTD/svg11.dtd">
<svg version="1.1" id="Layer_1" xmlns="http://www.w3.org/2000/svg" xmlns:xlink="http://www.w3.org/1999/xlink" x="0px" y="0px"
	 width="2000px" height="500px" viewBox="0 0 2000 500" enable-background="new 0 0 2000 500" xml:space="preserve">
<g>
	<rect fill="#FFFFFF" width="1000" height="500"/>
	<g>
		<polygon fill="#6B36E7" points="319.56,483 372.031,483 335.203,437.314 302.99,463.707 		"/>
		<polygon fill="#6B36E7" points="902.266,253 840.96,253 742.514,99.229 470.339,325.617 431.136,386.561 508.185,483 562.589,483 
			488.844,394.883 671.937,303.178 726.617,399 779.644,399 840.301,299.309 891.219,299.173 965.232,220.304 		"/>
		<polygon fill="#6B36E7" points="310.466,366.823 356.294,294.458 397.033,294.86 704.188,39.522 689.668,16.804 141.394,104.372 
			128,127.809 128,190.775 96.964,243 34,243 68.245,253 110.22,253 154.964,195.925 157.019,119.11 193,114.106 193,225.575 
			257.253,307.977 238.62,387.921 257.911,410.609 257.911,410.609 		"/>
		<path fill="#E27B7D" d="M295.553,456.033"/>
		<polygon fill="#E27B7D" points="310.466,366.823 257.792,410.609 295.553,456.033 302.99,463.854 335.203,437.413 
			296.364,389.092 		"/>
		<polygon fill="#E27B7D" points="704.188,39.522 397.033,294.86 489.402,295.771 470.339,325.747 742.514,99.489 		"/>
	</g>
</g>
<g>
	<rect x="1000" fill="#E27B7D" width="1000" height="500"/>
	<g>
		<path fill="#6B36E7" d="M1210.531,391.869l-130.152-169.693v166.215h-45.765V120.03h22.882l126.676,161.823V120.03h45.764v271.839
			H1210.531z"/>
		<path fill="#6B36E7" d="M1237.427,289.724c0-29.899,8.632-54.245,25.903-73.04c17.268-18.792,40.058-28.19,68.371-28.19
			c29.775,0,52.903,9.033,69.379,27.092c16.475,18.063,24.713,42.775,24.713,74.138c0,31.242-8.393,56.079-25.171,74.504
			c-16.78,18.429-39.755,27.642-68.921,27.642c-29.777,0-52.935-9.305-69.471-27.916
			C1245.692,345.345,1237.427,320.6,1237.427,289.724z M1285.021,289.724c0,43.201,15.561,64.802,46.68,64.802
			c14.279,0,25.597-5.611,33.957-16.842c8.357-11.227,12.539-27.212,12.539-47.96c0-42.589-15.499-63.887-46.496-63.887
			c-14.279,0-25.628,5.615-34.049,16.841C1289.232,253.907,1285.021,269.587,1285.021,289.724z"/>
		<path fill="#6B36E7" d="M1515.293,388.208h-82.01V120.212c36.123-1.707,61.444-2.562,75.969-2.562
			c27.824,0,49.577,5.949,65.259,17.848c15.681,11.898,23.523,28.895,23.523,50.981c0,21.235-11.229,38.016-33.683,50.341
			c33.317,11.596,49.975,35.513,49.975,71.758c0,24.409-9.216,43.782-27.642,58.121
			C1568.257,381.04,1544.459,388.208,1515.293,388.208z M1480.878,158.289v64.253c7.322,0.489,15.011,0.732,23.064,0.732
			c30.998,0,46.497-11.652,46.497-34.964c0-20.622-14.095-30.937-42.286-30.937C1500.709,157.373,1491.614,157.68,1480.878,158.289z
			 M1480.878,259.702v88.599c9.639,0.855,17.451,1.282,23.432,1.282c21.234,0,36.64-3.598,46.222-10.8
			c9.579-7.2,14.37-19.158,14.37-35.88c0-15.254-4.457-26.36-13.363-33.316c-8.909-6.956-24.47-10.435-46.68-10.435
			C1500.219,259.152,1492.228,259.336,1480.878,259.702z"/>
		<path fill="#6B36E7" d="M1748.126,388.391v-16.475c-6.47,5.491-15.376,10.19-26.726,14.096
			c-11.35,3.904-21.784,5.857-31.303,5.857c-45.521,0-68.28-24.164-68.28-72.49V192.154h45.764V315.9
			c0,25.142,11.286,37.709,33.866,37.709c10.37,0,20.014-2.683,28.923-8.054c8.906-5.369,14.828-11.593,17.756-18.672v-134.73
			h45.765v196.237H1748.126z"/>
		<path fill="#6B36E7" d="M1819.32,119.114l45.765-10.983v220.4c0,24.163,7.2,38.565,21.601,43.202
			c-7.079,13.426-19.16,20.136-36.245,20.136c-20.749,0-31.12-14.398-31.12-43.201V119.114z"/>
		<path fill="#6B36E7" d="M1898.021,119.114l45.765-10.983v220.4c0,24.163,7.199,38.565,21.601,43.202
			c-7.079,13.426-19.16,20.136-36.245,20.136c-20.749,0-31.12-14.398-31.12-43.201V119.114z"/>
	</g>
</g>
</svg>
