<?xml version="1.0" encoding="utf-8"?>
<!-- Generator: Adobe Illustrator 16.0.0, SVG Export Plug-In . SVG Version: 6.00 Build 0)  -->
<!DOCTYPE svg PUBLIC "-//W3C//DTD SVG 1.1//EN" "http://www.w3.org/Graphics/SVG/1.1/DTD/svg11.dtd">
<svg version="1.1" id="Layer_1" xmlns="http://www.w3.org/2000/svg" xmlns:xlink="http://www.w3.org/1999/xlink" x="0px" y="0px"
	 width="1000px" height="500px" viewBox="0 0 1000 500" enable-background="new 0 0 1000 500" xml:space="preserve">
<g>
	<polygon fill="#6B36E7" points="313.328,492 367.727,492 329.545,444.186 296.148,471.772 	"/>
	<polygon fill="#6B36E7" points="917.446,253 853.888,253 751.824,93.401 469.647,328.019 429.003,391.609 508.885,492 565.287,492 
		488.833,400.193 678.653,305.89 735.345,406 790.319,406 853.205,301.65 905.994,301.011 982.727,219.174 	"/>
	<polygon fill="#6B36E7" points="303.9,370.65 351.412,295.627 393.648,296.043 712.089,31.323 697.036,7.77 128.75,98.556 
		115,122.854 115,188.134 82.552,242 17.274,242 52.778,253 96.294,253 142.683,193.651 144.255,113.924 181,108.649 181,224.213 
		248.173,309.641 229.135,392.525 288.518,463.141 249.33,416.047 	"/>
	<polygon fill="#E27B7D" points="296.09,472.346 296.148,472.297 288.438,463.141 	"/>
	<polygon fill="#E27B7D" points="303.9,370.65 249.29,416.047 288.438,463.141 296.148,472.297 329.545,444.533 289.279,393.738 	
		"/>
	<polygon fill="#E27B7D" points="712.089,31.323 393.648,296.043 489.411,296.988 469.647,328.066 751.824,93.493 	"/>
</g>
</svg>
