<?xml version="1.0" encoding="utf-8"?>
<!-- Generator: Adobe Illustrator 16.0.0, SVG Export Plug-In . SVG Version: 6.00 Build 0)  -->
<!DOCTYPE svg PUBLIC "-//W3C//DTD SVG 1.1//EN" "http://www.w3.org/Graphics/SVG/1.1/DTD/svg11.dtd">
<svg version="1.1" id="Layer_1" xmlns="http://www.w3.org/2000/svg" xmlns:xlink="http://www.w3.org/1999/xlink" x="0px" y="0px"
	 width="600px" height="600px" viewBox="0 0 600 600" enable-background="new 0 0 600 600" xml:space="preserve">
<path fill="#6B36E7" d="M299.721,4.434C135.729,4.434,4.155,136.008,4.155,300c0,162.084,131.574,295.566,295.566,295.566
	c162.083,0,295.566-133.482,295.566-295.566C595.287,136.008,461.805,4.434,299.721,4.434z M473.246,441.108l-40.043,36.23
	C330.231,509.757,88.057,267.583,120.474,164.612l36.231-40.045c0,0,19.068-13.348,43.857,0
	c22.883,13.348,61.021,55.3,47.672,80.089c-13.348,24.79-24.79,34.325-24.79,34.325s-17.162,7.627,3.814,32.417
	c26.696,28.603,70.554,74.368,101.065,99.159c22.882,20.976,30.51,5.721,30.51,5.721s9.534-13.351,34.324-26.696
	c24.789-13.351,68.646,24.79,81.995,49.579C488.502,422.039,473.246,441.108,473.246,441.108z"/>
</svg>
