<?xml version="1.0" encoding="utf-8"?>
<!-- Generator: Adobe Illustrator 16.0.0, SVG Export Plug-In . SVG Version: 6.00 Build 0)  -->
<!DOCTYPE svg PUBLIC "-//W3C//DTD SVG 1.1//EN" "http://www.w3.org/Graphics/SVG/1.1/DTD/svg11.dtd">
<svg version="1.1" id="Layer_1" xmlns="http://www.w3.org/2000/svg" xmlns:xlink="http://www.w3.org/1999/xlink" x="0px" y="0px"
	 width="500px" height="500px" viewBox="0 0 500 500" enable-background="new 0 0 500 500" xml:space="preserve">
<g>
	<path fill="#6B36E7" d="M362.989,222.759h-85.277v-85.275c0-5.212-4.264-9.001-9.002-9.001h-36.479
		c-5.211,0-9.001,4.263-9.001,9.001v85.275h-85.276c-5.212,0-9.002,4.265-9.002,9.002v36.479c0,5.211,4.265,9.001,9.002,9.001
		h85.276v85.276c0,5.212,4.263,9.002,9.001,9.002h36.479c5.212,0,9.002-4.265,9.002-9.002v-85.276h85.277
		c5.211,0,9.001-4.263,9.001-9.001v-36.479C371.99,227.023,367.727,222.759,362.989,222.759z"/>
	<path fill="#E27B7D" d="M407.995,25.203H92.474c-36.953,0-67.273,30.32-67.273,67.273v315.048c0,36.952,30.32,67.272,67.273,67.272
		h315.047c36.954,0,67.273-30.32,67.273-67.272V92.477C475.269,55.523,444.949,25.203,407.995,25.203z M420.786,407.999
		c0,7.105-5.684,12.791-12.791,12.791H92.474c-7.106,0-12.792-5.686-12.792-12.791V92.477c0-7.106,5.685-12.791,12.792-12.791
		h315.047c7.107,0,12.791,5.685,12.791,12.791v315.522H420.786z"/>
</g>
</svg>
