<?xml version="1.0" encoding="utf-8"?>
<!-- Generator: Adobe Illustrator 16.0.0, SVG Export Plug-In . SVG Version: 6.00 Build 0)  -->
<!DOCTYPE svg PUBLIC "-//W3C//DTD SVG 1.1//EN" "http://www.w3.org/Graphics/SVG/1.1/DTD/svg11.dtd">
<svg version="1.1" id="Layer_1" xmlns="http://www.w3.org/2000/svg" xmlns:xlink="http://www.w3.org/1999/xlink" x="0px" y="0px"
	 width="1000px" height="500px" viewBox="0 0 1000 500" enable-background="new 0 0 1000 500" xml:space="preserve">
<path fill="#E27B7D" d="M808.938,20.143l-12.242,21.3H521.397V-1.254H477.74v42.697H196.693L183.914,20.12L25.435,296.478l0,0
	c15.933,36.62,94.319,61.541,161.643,61.541c67.326,0,146.564-24.909,162.507-61.541l0,0L222.858,85.098H477.74V500h43.657V85.098
	h250.267L650.415,296.478l0,0c15.931,36.62,94.32,61.541,161.644,61.541c67.325,0,146.574-24.909,162.506-61.541l0,0L808.938,20.143
	z M272.515,252.833H100.768l83.977-146.424L272.515,252.833z M725.771,252.833l83.976-146.424l87.749,146.424H725.771z"/>
</svg>
