<?xml version="1.0" encoding="utf-8"?>
<!-- Generator: Adobe Illustrator 16.0.0, SVG Export Plug-In . SVG Version: 6.00 Build 0)  -->
<!DOCTYPE svg PUBLIC "-//W3C//DTD SVG 1.1 Tiny//EN" "http://www.w3.org/Graphics/SVG/1.1/DTD/svg11-tiny.dtd">
<svg version="1.1" baseProfile="tiny" id="Layer_1" xmlns="http://www.w3.org/2000/svg" xmlns:xlink="http://www.w3.org/1999/xlink"
	 x="0px" y="0px" width="250px" height="250px" viewBox="0 0 250 250" xml:space="preserve">
<g>
	<path fill="#454D5D" d="M16.508,73.058v103.82c0,6.488,3.635,12.718,9.345,16.091l89.805,51.91
		c2.854,1.817,5.969,2.596,9.344,2.596c3.374,0,6.489-1.038,9.344-2.596l89.804-51.91c5.711-3.113,9.344-9.344,9.344-16.091V73.058
		c0-6.489-3.633-12.718-9.344-16.092l-89.804-51.91c-5.71-3.374-12.978-3.374-18.688,0l-89.805,51.91
		C20.143,60.34,16.508,66.569,16.508,73.058z M74.907,105.501c7.527-28.291,36.078-44.902,64.369-37.635
		s44.901,36.078,37.635,64.108c-3.375,13.237-11.939,24.139-22.581,30.887l13.757,21.283l-55.545-14.535
		C84.511,162.343,67.64,133.532,74.907,105.501z"/>
	<path fill="#454D5D" d="M140.831,100.57c-0.52-0.519-5.71-5.71-12.458-7.268l-0.52-0.26v-2.854c0-1.817-1.558-3.115-3.114-3.115
		c-1.816,0-3.114,1.557-3.114,3.115v3.114l-0.52,0.26c-6.489,1.817-10.901,7.787-10.901,14.275c0,6.748,4.412,12.458,10.901,14.275
		l0.52,0.259v16.352l-1.039-0.52c-3.114-1.816-5.97-4.412-7.268-5.71c-0.519-0.778-1.557-1.038-2.336-1.038
		c-0.778,0-1.557,0.26-2.076,0.778c-1.298,1.038-1.557,3.115-0.259,4.412c0.519,0.779,5.969,6.749,12.718,8.825l0.519,0.26v3.114
		c0,1.817,1.558,3.115,3.115,3.115c1.817,0,3.114-1.558,3.114-3.115v-2.854l0.519-0.26c6.489-1.558,11.161-7.527,11.161-14.535
		c0-6.748-4.672-12.717-11.161-14.534l-0.519-0.26V99.532l1.038,0.52c3.374,1.298,6.229,3.893,7.268,4.931
		c1.297,1.298,3.374,1.298,4.412,0C142.129,103.944,142.129,101.868,140.831,100.57z M121.365,115.625l-1.298-0.779
		c-2.336-1.558-3.894-4.413-3.894-7.268c0-2.855,1.558-5.451,3.894-7.008l1.298-0.779V115.625z M128.892,123.67
		c2.596,1.557,4.153,4.412,4.153,7.266c0,3.115-1.558,5.71-4.153,7.268l-1.298,0.779v-16.092L128.892,123.67z"/>
</g>
</svg>
