<?xml version="1.0" encoding="utf-8"?>
<!-- Generator: Adobe Illustrator 16.0.0, SVG Export Plug-In . SVG Version: 6.00 Build 0)  -->
<!DOCTYPE svg PUBLIC "-//W3C//DTD SVG 1.1//EN" "http://www.w3.org/Graphics/SVG/1.1/DTD/svg11.dtd">
<svg version="1.1" id="Layer_1" xmlns="http://www.w3.org/2000/svg" xmlns:xlink="http://www.w3.org/1999/xlink" x="0px" y="0px"
	 width="600px" height="600px" viewBox="0 0 600 600" enable-background="new 0 0 600 600" xml:space="preserve">
<path fill="#6B36E7" d="M300,4.434C136.453,4.434,4.434,136.453,4.434,300S136.453,595.566,300,595.566S595.566,463.547,595.566,300
	S463.547,4.434,300,4.434z M451.072,222.494c0.228,3.343,0.228,6.7,0.228,10.075c0,103.006-78.415,221.784-221.782,221.784v-0.062
	c-42.356,0.06-83.832-12.077-119.479-34.953c6.157,0.74,12.354,1.113,18.555,1.126c35.107,0.036,69.202-11.741,96.805-33.432
	c-33.348-0.628-62.611-22.381-72.824-54.133c11.682,2.249,23.721,1.791,35.197-1.337c-36.371-7.348-62.524-39.307-62.536-76.41
	c0-0.334,0-0.67,0-0.988c10.84,6.044,22.975,9.389,35.378,9.757c-34.254-22.873-44.82-68.438-24.132-104.054
	c39.58,48.695,97.974,78.297,160.646,81.441c-6.281-27.072,2.309-55.439,22.551-74.477c31.39-29.521,80.767-28.004,110.286,3.385
	c17.456-3.442,34.195-9.841,49.498-18.921c-5.82,18.052-17.998,33.372-34.271,43.113c15.454-1.825,30.544-5.96,44.771-12.263
	C479.495,197.798,466.326,211.459,451.072,222.494z"/>
</svg>
