<svg baseProfile="tiny" xmlns="http://www.w3.org/2000/svg" width="250" height="250">
  <g fill="#454D5D">
    <path d="M23.92 150.5a7.19 7.19 0 0 0 7.19 7.2h97a7.19 7.19 0 0 0 7.18-7.2v-10.77a7.19 7.19 0 0 0-7.18-7.19h-97a7.19 7.19 0 0 0-7.19 7.19v10.78zm7.19-10.77h97v10.78h-97v-10.78zM32.52 228.5c.97-.01 1.9-.47 2.58-1.28l24.79-29.24 26.37 13.26a3.2 3.2 0 0 0 3.66-.54l20.94-18.83 30.91 24.2c1.64 1.3 3.85.81 5-1.07l29.62-48.76 23.3 36.43c.65 1 1.62 1.62 2.68 1.7a3.37 3.37 0 0 0 2.83-1.25l15.1-17.81a4.89 4.89 0 0 0 0-6.11 3.28 3.28 0 0 0-5.18 0L203 193.5l-23.78-37.17a3.5 3.5 0 0 0-2.93-1.7 3.53 3.53 0 0 0-2.92 1.79l-30.51 50.16-30.14-23.6c-1.3-1.02-3-.95-4.25.17l-21.32 19.17-26.7-13.4a3.26 3.26 0 0 0-4.03.92l-26.52 31.31a4.89 4.89 0 0 0 .01 6.1 3.4 3.4 0 0 0 2.57 1.26l.03-.02zM221.96 31.29a3.6 3.6 0 1 0 0-7.19h-9.2a3.6 3.6 0 1 0 0 7.19h9.2zM198.61 31.29a3.6 3.6 0 1 0 0-7.19h-9.2a3.6 3.6 0 1 0 0 7.19h9.2zM235.89 108.65a3.6 3.6 0 0 0-3.6 3.6v11.67a3.6 3.6 0 1 0 7.19.18v-12.03a3.6 3.6 0 0 0-3.6-3.42z"/>
    <path d="M54.39 36.98l-.43 7.19h178.82v57.57c2.32-.84 4.86-.84 7.18 0V19.22a9.2 9.2 0 0 0-9.18-9.18H19.22a9.2 9.2 0 0 0-9.18 9.18v211.56a9.2 9.2 0 0 0 9.18 9.18h211.56a9.2 9.2 0 0 0 9.18-9.18v-97c-2.32.84-4.86.84-7.18 0v97a2 2 0 0 1-2 2H19.22a2 2 0 0 1-2-2V44.17h36.74l.43-7.19H17.22V19.22c0-1.1.9-2 2-2h211.56a2 2 0 0 1 2 2v17.76H58.4"/>
    <path d="M23.92 79.57a7.19 7.19 0 0 0 7.19 7.19H182a7.19 7.19 0 0 0 7.18-7.19V68.8A7.19 7.19 0 0 0 182 61.6H31.1a7.19 7.19 0 0 0-7.18 7.19v10.77zm7.19-10.77H182v10.77H31.1V68.8zM23.92 104.26v10.78a7.19 7.19 0 0 0 7.19 7.19h97a7.19 7.19 0 0 0 7.18-7.19v-10.78a7.19 7.19 0 0 0-7.18-7.18h-97a7.19 7.19 0 0 0-7.19 7.18zm104.19 10.78h-97v-10.78h97v10.78z"/>
  </g>
</svg>
